<mxfile host="65bd71144e" pages="2">
    <diagram id="OuHKB4TpfspXbUNequrL" name="第 1 页">
        <mxGraphModel dx="2383" dy="1977" grid="1" gridSize="10" guides="1" tooltips="1" connect="1" arrows="1" fold="1" page="1" pageScale="1" pageWidth="827" pageHeight="1169" math="0" shadow="0">
            <root>
                <mxCell id="0"/>
                <mxCell id="1" parent="0"/>
                <mxCell id="YtkZAcO4TXOXhd_2KU37-1" value="" style="rounded=0;whiteSpace=wrap;html=1;" parent="1" vertex="1">
                    <mxGeometry x="-1390" y="90" width="400" height="540" as="geometry"/>
                </mxCell>
                <mxCell id="YtkZAcO4TXOXhd_2KU37-2" value="" style="group" parent="1" vertex="1" connectable="0" treatAsSingle="0">
                    <mxGeometry x="-85" y="-40" width="1100" height="1050" as="geometry"/>
                </mxCell>
                <mxCell id="YtkZAcO4TXOXhd_2KU37-3" value="&lt;pre style=&quot;background-color: rgb(38 , 50 , 56) ; color: rgb(195 , 206 , 227) ; font-family: &amp;#34;consolas&amp;#34; , monospace&quot;&gt;&lt;br&gt;&lt;/pre&gt;" style="rounded=0;whiteSpace=wrap;html=1;" parent="YtkZAcO4TXOXhd_2KU37-2" vertex="1">
                    <mxGeometry width="390" height="1050" as="geometry"/>
                </mxCell>
                <mxCell id="YtkZAcO4TXOXhd_2KU37-4" value="&lt;span style=&quot;font-family: &amp;#34;consolas&amp;#34; , monospace ; background-color: rgb(255 , 255 , 255)&quot;&gt;&lt;b&gt;&lt;font style=&quot;font-size: 18px ; line-height: 250%&quot;&gt;AbstractApplicationContext.refresh()&lt;/font&gt;&lt;/b&gt;&lt;/span&gt;" style="text;html=1;strokeColor=none;fillColor=none;align=center;verticalAlign=middle;whiteSpace=wrap;rounded=0;" parent="YtkZAcO4TXOXhd_2KU37-2" vertex="1">
                    <mxGeometry x="19.659999999999997" y="10" width="340.68" height="20" as="geometry"/>
                </mxCell>
                <mxCell id="YtkZAcO4TXOXhd_2KU37-5" style="edgeStyle=none;rounded=0;orthogonalLoop=1;jettySize=auto;html=1;exitX=0.5;exitY=1;exitDx=0;exitDy=0;" parent="YtkZAcO4TXOXhd_2KU37-2" source="YtkZAcO4TXOXhd_2KU37-6" target="YtkZAcO4TXOXhd_2KU37-10" edge="1">
                    <mxGeometry relative="1" as="geometry"/>
                </mxCell>
                <mxCell id="YtkZAcO4TXOXhd_2KU37-6" value="&lt;pre style=&quot;font-family: &amp;#34;jetbrains mono&amp;#34; , monospace ; font-size: 9.8pt&quot;&gt;&lt;pre style=&quot;font-family: &amp;#34;jetbrains mono&amp;#34; , monospace ; font-size: 9.8pt&quot;&gt;&lt;pre style=&quot;font-family: &amp;#34;jetbrains mono&amp;#34; , monospace ; font-size: 9.8pt&quot;&gt;&lt;pre style=&quot;font-family: &amp;#34;jetbrains mono&amp;#34; , monospace ; font-size: 9.8pt&quot;&gt;&lt;span style=&quot;background-color: rgb(255 , 255 , 255)&quot;&gt;invokeBeanFactoryPostProcessors()&lt;/span&gt;&lt;/pre&gt;&lt;/pre&gt;&lt;/pre&gt;&lt;/pre&gt;" style="rounded=0;whiteSpace=wrap;html=1;" parent="YtkZAcO4TXOXhd_2KU37-2" vertex="1">
                    <mxGeometry x="39.31818181818182" y="470" width="301.3636363636364" height="40" as="geometry"/>
                </mxCell>
                <mxCell id="YtkZAcO4TXOXhd_2KU37-7" style="edgeStyle=none;rounded=0;orthogonalLoop=1;jettySize=auto;html=1;exitX=0.5;exitY=1;exitDx=0;exitDy=0;entryX=0.5;entryY=0;entryDx=0;entryDy=0;" parent="YtkZAcO4TXOXhd_2KU37-2" source="YtkZAcO4TXOXhd_2KU37-8" target="YtkZAcO4TXOXhd_2KU37-6" edge="1">
                    <mxGeometry relative="1" as="geometry"/>
                </mxCell>
                <mxCell id="YtkZAcO4TXOXhd_2KU37-8" value="&lt;pre style=&quot;font-family: &amp;#34;jetbrains mono&amp;#34; , monospace ; font-size: 9.8pt&quot;&gt;&lt;pre style=&quot;font-family: &amp;#34;jetbrains mono&amp;#34; , monospace ; font-size: 9.8pt&quot;&gt;&lt;pre style=&quot;font-family: &amp;#34;jetbrains mono&amp;#34; , monospace ; font-size: 9.8pt&quot;&gt;&lt;span style=&quot;background-color: rgb(255 , 255 , 255)&quot;&gt;postProcessBeanFactory()&lt;/span&gt;&lt;/pre&gt;&lt;/pre&gt;&lt;/pre&gt;" style="rounded=0;whiteSpace=wrap;html=1;" parent="YtkZAcO4TXOXhd_2KU37-2" vertex="1">
                    <mxGeometry x="39.31818181818181" y="320" width="301.3636363636364" height="40" as="geometry"/>
                </mxCell>
                <mxCell id="YtkZAcO4TXOXhd_2KU37-9" style="edgeStyle=none;rounded=0;orthogonalLoop=1;jettySize=auto;html=1;exitX=0.5;exitY=1;exitDx=0;exitDy=0;" parent="YtkZAcO4TXOXhd_2KU37-2" source="YtkZAcO4TXOXhd_2KU37-10" target="YtkZAcO4TXOXhd_2KU37-12" edge="1">
                    <mxGeometry relative="1" as="geometry"/>
                </mxCell>
                <mxCell id="YtkZAcO4TXOXhd_2KU37-10" value="&lt;pre style=&quot;font-family: &amp;#34;jetbrains mono&amp;#34; , monospace ; font-size: 9.8pt&quot;&gt;&lt;pre style=&quot;font-family: &amp;#34;jetbrains mono&amp;#34; , monospace ; font-size: 9.8pt&quot;&gt;&lt;pre style=&quot;font-family: &amp;#34;jetbrains mono&amp;#34; , monospace ; font-size: 9.8pt&quot;&gt;&lt;pre style=&quot;font-family: &amp;#34;jetbrains mono&amp;#34; , monospace ; font-size: 9.8pt&quot;&gt;&lt;pre style=&quot;font-family: &amp;#34;jetbrains mono&amp;#34; , monospace ; font-size: 9.8pt&quot;&gt;registerBeanPostProcessors()&lt;/pre&gt;&lt;/pre&gt;&lt;/pre&gt;&lt;/pre&gt;&lt;/pre&gt;" style="rounded=0;whiteSpace=wrap;html=1;" parent="YtkZAcO4TXOXhd_2KU37-2" vertex="1">
                    <mxGeometry x="39.31818181818182" y="610" width="301.3636363636364" height="40" as="geometry"/>
                </mxCell>
                <mxCell id="YtkZAcO4TXOXhd_2KU37-11" style="edgeStyle=orthogonalEdgeStyle;rounded=0;orthogonalLoop=1;jettySize=auto;html=1;exitX=0.5;exitY=1;exitDx=0;exitDy=0;entryX=0.5;entryY=0;entryDx=0;entryDy=0;" parent="YtkZAcO4TXOXhd_2KU37-2" source="YtkZAcO4TXOXhd_2KU37-12" target="YtkZAcO4TXOXhd_2KU37-14" edge="1">
                    <mxGeometry relative="1" as="geometry"/>
                </mxCell>
                <mxCell id="YtkZAcO4TXOXhd_2KU37-12" value="&lt;pre style=&quot;font-family: &amp;#34;jetbrains mono&amp;#34; , monospace ; font-size: 9.8pt&quot;&gt;&lt;pre style=&quot;font-family: &amp;#34;jetbrains mono&amp;#34; , monospace ; font-size: 9.8pt&quot;&gt;&lt;pre style=&quot;font-family: &amp;#34;jetbrains mono&amp;#34; , monospace ; font-size: 9.8pt&quot;&gt;&lt;pre style=&quot;font-family: &amp;#34;jetbrains mono&amp;#34; , monospace ; font-size: 9.8pt&quot;&gt;&lt;pre style=&quot;font-family: &amp;#34;jetbrains mono&amp;#34; , monospace ; font-size: 9.8pt&quot;&gt;&lt;pre style=&quot;font-family: &amp;#34;jetbrains mono&amp;#34; , monospace ; font-size: 9.8pt&quot;&gt;initMessageSource()&lt;/pre&gt;&lt;/pre&gt;&lt;/pre&gt;&lt;/pre&gt;&lt;/pre&gt;&lt;/pre&gt;" style="rounded=0;whiteSpace=wrap;html=1;" parent="YtkZAcO4TXOXhd_2KU37-2" vertex="1">
                    <mxGeometry x="39.31818181818182" y="685" width="301.3636363636364" height="40" as="geometry"/>
                </mxCell>
                <mxCell id="YtkZAcO4TXOXhd_2KU37-13" style="edgeStyle=orthogonalEdgeStyle;rounded=0;orthogonalLoop=1;jettySize=auto;html=1;exitX=0.5;exitY=1;exitDx=0;exitDy=0;entryX=0.5;entryY=0;entryDx=0;entryDy=0;" parent="YtkZAcO4TXOXhd_2KU37-2" source="YtkZAcO4TXOXhd_2KU37-14" target="YtkZAcO4TXOXhd_2KU37-16" edge="1">
                    <mxGeometry relative="1" as="geometry"/>
                </mxCell>
                <mxCell id="YtkZAcO4TXOXhd_2KU37-14" value="&lt;pre style=&quot;font-family: &amp;#34;jetbrains mono&amp;#34; , monospace ; font-size: 9.8pt&quot;&gt;&lt;pre style=&quot;font-family: &amp;#34;jetbrains mono&amp;#34; , monospace ; font-size: 9.8pt&quot;&gt;&lt;pre style=&quot;font-family: &amp;#34;jetbrains mono&amp;#34; , monospace ; font-size: 9.8pt&quot;&gt;&lt;pre style=&quot;font-family: &amp;#34;jetbrains mono&amp;#34; , monospace ; font-size: 9.8pt&quot;&gt;&lt;pre style=&quot;font-family: &amp;#34;jetbrains mono&amp;#34; , monospace ; font-size: 9.8pt&quot;&gt;&lt;pre style=&quot;font-family: &amp;#34;jetbrains mono&amp;#34; , monospace ; font-size: 9.8pt&quot;&gt;&lt;pre style=&quot;font-family: &amp;#34;jetbrains mono&amp;#34; , monospace ; font-size: 9.8pt&quot;&gt;initApplicationEventMulticaster()&lt;/pre&gt;&lt;/pre&gt;&lt;/pre&gt;&lt;/pre&gt;&lt;/pre&gt;&lt;/pre&gt;&lt;/pre&gt;" style="rounded=0;whiteSpace=wrap;html=1;" parent="YtkZAcO4TXOXhd_2KU37-2" vertex="1">
                    <mxGeometry x="39.31818181818181" y="765" width="301.3636363636364" height="40" as="geometry"/>
                </mxCell>
                <mxCell id="YtkZAcO4TXOXhd_2KU37-15" style="edgeStyle=orthogonalEdgeStyle;rounded=0;orthogonalLoop=1;jettySize=auto;html=1;exitX=0.5;exitY=1;exitDx=0;exitDy=0;" parent="YtkZAcO4TXOXhd_2KU37-2" source="YtkZAcO4TXOXhd_2KU37-16" target="YtkZAcO4TXOXhd_2KU37-18" edge="1">
                    <mxGeometry relative="1" as="geometry"/>
                </mxCell>
                <mxCell id="YtkZAcO4TXOXhd_2KU37-16" value="&lt;pre style=&quot;font-family: &amp;#34;jetbrains mono&amp;#34; , monospace ; font-size: 9.8pt&quot;&gt;&lt;pre style=&quot;font-family: &amp;#34;jetbrains mono&amp;#34; , monospace ; font-size: 9.8pt&quot;&gt;&lt;pre style=&quot;font-family: &amp;#34;jetbrains mono&amp;#34; , monospace ; font-size: 9.8pt&quot;&gt;&lt;pre style=&quot;font-family: &amp;#34;jetbrains mono&amp;#34; , monospace ; font-size: 9.8pt&quot;&gt;&lt;pre style=&quot;font-family: &amp;#34;jetbrains mono&amp;#34; , monospace ; font-size: 9.8pt&quot;&gt;&lt;pre style=&quot;font-family: &amp;#34;jetbrains mono&amp;#34; , monospace ; font-size: 9.8pt&quot;&gt;&lt;pre style=&quot;font-family: &amp;#34;jetbrains mono&amp;#34; , monospace ; font-size: 9.8pt&quot;&gt;onfresh()&lt;/pre&gt;&lt;/pre&gt;&lt;/pre&gt;&lt;/pre&gt;&lt;/pre&gt;&lt;/pre&gt;&lt;/pre&gt;" style="rounded=0;whiteSpace=wrap;html=1;" parent="YtkZAcO4TXOXhd_2KU37-2" vertex="1">
                    <mxGeometry x="39.31818181818181" y="830" width="301.3636363636364" height="40" as="geometry"/>
                </mxCell>
                <mxCell id="YtkZAcO4TXOXhd_2KU37-17" style="edgeStyle=orthogonalEdgeStyle;rounded=0;orthogonalLoop=1;jettySize=auto;html=1;exitX=0.5;exitY=1;exitDx=0;exitDy=0;" parent="YtkZAcO4TXOXhd_2KU37-2" source="YtkZAcO4TXOXhd_2KU37-18" target="YtkZAcO4TXOXhd_2KU37-19" edge="1">
                    <mxGeometry relative="1" as="geometry"/>
                </mxCell>
                <mxCell id="YtkZAcO4TXOXhd_2KU37-18" value="&lt;pre style=&quot;font-family: &amp;#34;jetbrains mono&amp;#34; , monospace ; font-size: 9.8pt&quot;&gt;&lt;pre style=&quot;font-family: &amp;#34;jetbrains mono&amp;#34; , monospace ; font-size: 9.8pt&quot;&gt;&lt;pre style=&quot;font-family: &amp;#34;jetbrains mono&amp;#34; , monospace ; font-size: 9.8pt&quot;&gt;&lt;pre style=&quot;font-family: &amp;#34;jetbrains mono&amp;#34; , monospace ; font-size: 9.8pt&quot;&gt;&lt;pre style=&quot;font-family: &amp;#34;jetbrains mono&amp;#34; , monospace ; font-size: 9.8pt&quot;&gt;&lt;pre style=&quot;font-family: &amp;#34;jetbrains mono&amp;#34; , monospace ; font-size: 9.8pt&quot;&gt;&lt;pre style=&quot;font-family: &amp;#34;jetbrains mono&amp;#34; , monospace ; font-size: 9.8pt&quot;&gt;&lt;pre style=&quot;font-family: &amp;#34;jetbrains mono&amp;#34; , monospace ; font-size: 9.8pt&quot;&gt;registerListeners()&lt;/pre&gt;&lt;/pre&gt;&lt;/pre&gt;&lt;/pre&gt;&lt;/pre&gt;&lt;/pre&gt;&lt;/pre&gt;&lt;/pre&gt;" style="rounded=0;whiteSpace=wrap;html=1;" parent="YtkZAcO4TXOXhd_2KU37-2" vertex="1">
                    <mxGeometry x="39.31818181818181" y="900" width="301.3636363636364" height="40" as="geometry"/>
                </mxCell>
                <mxCell id="YtkZAcO4TXOXhd_2KU37-19" value="&lt;pre style=&quot;font-family: &amp;#34;jetbrains mono&amp;#34; , monospace ; font-size: 9.8pt&quot;&gt;&lt;pre style=&quot;font-family: &amp;#34;jetbrains mono&amp;#34; , monospace ; font-size: 9.8pt&quot;&gt;&lt;pre style=&quot;font-family: &amp;#34;jetbrains mono&amp;#34; , monospace ; font-size: 9.8pt&quot;&gt;&lt;pre style=&quot;font-family: &amp;#34;jetbrains mono&amp;#34; , monospace ; font-size: 9.8pt&quot;&gt;&lt;pre style=&quot;font-family: &amp;#34;jetbrains mono&amp;#34; , monospace ; font-size: 9.8pt&quot;&gt;&lt;pre style=&quot;font-family: &amp;#34;jetbrains mono&amp;#34; , monospace ; font-size: 9.8pt&quot;&gt;&lt;pre style=&quot;font-family: &amp;#34;jetbrains mono&amp;#34; , monospace ; font-size: 9.8pt&quot;&gt;&lt;pre style=&quot;font-family: &amp;#34;jetbrains mono&amp;#34; , monospace ; font-size: 9.8pt&quot;&gt;&lt;pre style=&quot;font-family: &amp;#34;jetbrains mono&amp;#34; , monospace ; font-size: 9.8pt&quot;&gt;finishBeanFactoryInitialization()&lt;/pre&gt;&lt;/pre&gt;&lt;/pre&gt;&lt;/pre&gt;&lt;/pre&gt;&lt;/pre&gt;&lt;/pre&gt;&lt;/pre&gt;&lt;/pre&gt;" style="rounded=0;whiteSpace=wrap;html=1;fillColor=#60a917;strokeColor=#2D7600;fontColor=#ffffff;" parent="YtkZAcO4TXOXhd_2KU37-2" vertex="1">
                    <mxGeometry x="39.31818181818181" y="985" width="301.3636363636364" height="40" as="geometry"/>
                </mxCell>
                <mxCell id="YtkZAcO4TXOXhd_2KU37-20" value="" style="rounded=0;whiteSpace=wrap;html=1;" parent="1" vertex="1">
                    <mxGeometry x="555" y="-440" width="480" height="360" as="geometry"/>
                </mxCell>
                <mxCell id="YtkZAcO4TXOXhd_2KU37-21" style="edgeStyle=orthogonalEdgeStyle;rounded=0;orthogonalLoop=1;jettySize=auto;html=1;exitX=0.5;exitY=1;exitDx=0;exitDy=0;entryX=0.5;entryY=0;entryDx=0;entryDy=0;" parent="1" source="YtkZAcO4TXOXhd_2KU37-22" target="YtkZAcO4TXOXhd_2KU37-33" edge="1">
                    <mxGeometry relative="1" as="geometry"/>
                </mxCell>
                <mxCell id="YtkZAcO4TXOXhd_2KU37-22" value="&lt;pre style=&quot;font-family: &amp;#34;jetbrains mono&amp;#34; , monospace ; font-size: 9.8pt&quot;&gt;&lt;span style=&quot;background-color: rgb(255 , 255 , 255)&quot;&gt;obtainFreshBeanFactory()&lt;/span&gt;&lt;/pre&gt;" style="rounded=0;whiteSpace=wrap;html=1;" parent="1" vertex="1">
                    <mxGeometry x="-50" y="120" width="300" height="40" as="geometry"/>
                </mxCell>
                <mxCell id="YtkZAcO4TXOXhd_2KU37-23" value="" style="edgeStyle=orthogonalEdgeStyle;rounded=0;orthogonalLoop=1;jettySize=auto;html=1;" parent="1" source="YtkZAcO4TXOXhd_2KU37-24" target="YtkZAcO4TXOXhd_2KU37-26" edge="1">
                    <mxGeometry relative="1" as="geometry"/>
                </mxCell>
                <mxCell id="YtkZAcO4TXOXhd_2KU37-24" value="&lt;pre style=&quot;font-family: &amp;#34;jetbrains mono&amp;#34; , monospace ; font-size: 9.8pt&quot;&gt;AbstractApplicationContext.&lt;/pre&gt;" style="text;whiteSpace=wrap;html=1;align=center;fillColor=#fff2cc;strokeColor=#d6b656;" parent="1" vertex="1">
                    <mxGeometry x="580" y="-370" width="420" height="60" as="geometry"/>
                </mxCell>
                <mxCell id="YtkZAcO4TXOXhd_2KU37-25" style="edgeStyle=orthogonalEdgeStyle;rounded=0;orthogonalLoop=1;jettySize=auto;html=1;exitX=0.5;exitY=1;exitDx=0;exitDy=0;entryX=0.5;entryY=0;entryDx=0;entryDy=0;" parent="1" source="YtkZAcO4TXOXhd_2KU37-26" target="YtkZAcO4TXOXhd_2KU37-27" edge="1">
                    <mxGeometry relative="1" as="geometry"/>
                </mxCell>
                <mxCell id="YtkZAcO4TXOXhd_2KU37-26" value="&lt;pre style=&quot;font-family: &amp;#34;jetbrains mono&amp;#34; , monospace ; font-size: 9.8pt&quot;&gt;AbstractRefreshableApplicationContext.refreshBeanFactory&lt;/pre&gt;" style="text;whiteSpace=wrap;html=1;align=center;fillColor=#fff2cc;strokeColor=#d6b656;" parent="1" vertex="1">
                    <mxGeometry x="580" y="-280" width="420" height="60" as="geometry"/>
                </mxCell>
                <mxCell id="YtkZAcO4TXOXhd_2KU37-27" value="&lt;pre style=&quot;font-family: &amp;#34;jetbrains mono&amp;#34; , monospace ; font-size: 9.8pt&quot;&gt;&lt;pre style=&quot;font-family: &amp;#34;consolas&amp;#34; , monospace ; font-size: 9pt&quot;&gt;AbstractXmlApplicationContext.loadBeanDefinitions&lt;/pre&gt;&lt;pre style=&quot;font-family: &amp;#34;consolas&amp;#34; , monospace ; font-size: 9pt&quot;&gt;读取xmlBean的信息，读取完后并从xml中读取bean信息，&lt;/pre&gt;&lt;pre style=&quot;font-family: &amp;#34;consolas&amp;#34; , monospace ; font-size: 9pt&quot;&gt;并转换成GenericBeanDefinition&lt;/pre&gt;&lt;/pre&gt;" style="text;whiteSpace=wrap;html=1;fillColor=#fff2cc;strokeColor=#d6b656;align=center;" parent="1" vertex="1">
                    <mxGeometry x="575" y="-200" width="420" height="100" as="geometry"/>
                </mxCell>
                <mxCell id="YtkZAcO4TXOXhd_2KU37-28" style="edgeStyle=none;rounded=0;orthogonalLoop=1;jettySize=auto;html=1;exitX=1;exitY=0.5;exitDx=0;exitDy=0;entryX=0;entryY=0.5;entryDx=0;entryDy=0;" parent="1" source="YtkZAcO4TXOXhd_2KU37-29" target="YtkZAcO4TXOXhd_2KU37-22" edge="1">
                    <mxGeometry relative="1" as="geometry"/>
                </mxCell>
                <mxCell id="YtkZAcO4TXOXhd_2KU37-29" value="&lt;font style=&quot;font-size: 16px&quot;&gt;1.初始化beanFactory原始信息，主要初始化类&lt;span style=&quot;font-family: &amp;#34;jetbrains mono&amp;#34; , monospace&quot;&gt;&lt;font color=&quot;#cc6600&quot; style=&quot;font-size: 16px&quot;&gt;&lt;b&gt;DefaultListableBeanFactory&lt;/b&gt;&lt;/font&gt;&lt;/span&gt;&lt;br&gt;2.读取xml配置，将对应的bean 转换成&lt;span style=&quot;font-family: &amp;#34;consolas&amp;#34; , monospace&quot;&gt;&lt;font color=&quot;#cc6600&quot; style=&quot;font-size: 16px&quot;&gt;&lt;b&gt;GenericBeanDefinition&lt;/b&gt;&lt;/font&gt;&lt;/span&gt;&lt;/font&gt;" style="text;html=1;strokeColor=#314354;fillColor=#647687;align=left;verticalAlign=middle;whiteSpace=wrap;rounded=0;fontColor=#ffffff;" parent="1" vertex="1">
                    <mxGeometry x="-660" y="100" width="557" height="80" as="geometry"/>
                </mxCell>
                <mxCell id="YtkZAcO4TXOXhd_2KU37-30" style="edgeStyle=orthogonalEdgeStyle;rounded=0;orthogonalLoop=1;jettySize=auto;html=1;exitX=0.5;exitY=1;exitDx=0;exitDy=0;entryX=0.5;entryY=0;entryDx=0;entryDy=0;" parent="1" source="YtkZAcO4TXOXhd_2KU37-31" target="YtkZAcO4TXOXhd_2KU37-22" edge="1">
                    <mxGeometry relative="1" as="geometry"/>
                </mxCell>
                <mxCell id="YtkZAcO4TXOXhd_2KU37-31" value="&lt;pre style=&quot;font-family: &amp;#34;jetbrains mono&amp;#34; , monospace ; font-size: 9.8pt&quot;&gt;&lt;span style=&quot;background-color: rgb(255 , 255 , 255)&quot;&gt;prepareRefresh()&lt;/span&gt;&lt;/pre&gt;" style="rounded=0;whiteSpace=wrap;html=1;" parent="1" vertex="1">
                    <mxGeometry x="-50" y="60" width="300" height="30" as="geometry"/>
                </mxCell>
                <mxCell id="YtkZAcO4TXOXhd_2KU37-32" style="edgeStyle=orthogonalEdgeStyle;rounded=0;orthogonalLoop=1;jettySize=auto;html=1;exitX=0.5;exitY=1;exitDx=0;exitDy=0;entryX=0.5;entryY=0;entryDx=0;entryDy=0;" parent="1" source="YtkZAcO4TXOXhd_2KU37-33" target="YtkZAcO4TXOXhd_2KU37-8" edge="1">
                    <mxGeometry relative="1" as="geometry"/>
                </mxCell>
                <mxCell id="YtkZAcO4TXOXhd_2KU37-33" value="&lt;pre style=&quot;font-family: &amp;#34;jetbrains mono&amp;#34; , monospace ; font-size: 9.8pt&quot;&gt;&lt;pre style=&quot;font-family: &amp;#34;jetbrains mono&amp;#34; , monospace ; font-size: 9.8pt&quot;&gt;&lt;span style=&quot;background-color: rgb(255 , 255 , 255)&quot;&gt;prepareBeanFactory()&lt;/span&gt;&lt;/pre&gt;&lt;/pre&gt;" style="rounded=0;whiteSpace=wrap;html=1;" parent="1" vertex="1">
                    <mxGeometry x="-50" y="210" width="300" height="40" as="geometry"/>
                </mxCell>
                <mxCell id="YtkZAcO4TXOXhd_2KU37-34" style="edgeStyle=orthogonalEdgeStyle;rounded=0;orthogonalLoop=1;jettySize=auto;html=1;exitX=1;exitY=0.5;exitDx=0;exitDy=0;entryX=0;entryY=0.5;entryDx=0;entryDy=0;" parent="1" source="YtkZAcO4TXOXhd_2KU37-35" target="YtkZAcO4TXOXhd_2KU37-33" edge="1">
                    <mxGeometry relative="1" as="geometry"/>
                </mxCell>
                <mxCell id="YtkZAcO4TXOXhd_2KU37-35" value="为&lt;b style=&quot;color: rgb(204 , 102 , 0) ; font-family: &amp;#34;jetbrains mono&amp;#34; , monospace ; font-size: 16px&quot;&gt;DefaultListableBeanFactory&lt;/b&gt;&lt;span style=&quot;font-family: &amp;#34;jetbrains mono&amp;#34; , monospace&quot;&gt;&lt;font style=&quot;font-size: 12px&quot;&gt;初始化各种属性&lt;/font&gt;&lt;/span&gt;" style="text;html=1;strokeColor=#314354;fillColor=#647687;align=left;verticalAlign=middle;whiteSpace=wrap;rounded=0;fontColor=#ffffff;" parent="1" vertex="1">
                    <mxGeometry x="-660" y="205" width="557" height="50" as="geometry"/>
                </mxCell>
                <mxCell id="YtkZAcO4TXOXhd_2KU37-36" value="&lt;span style=&quot;background-color: rgb(255 , 153 , 51) ; font-size: 18px&quot;&gt;&lt;font style=&quot;font-size: 18px&quot;&gt;&lt;br&gt;&lt;br&gt;&lt;/font&gt;&lt;/span&gt;&lt;pre style=&quot;color: rgb(0 , 0 , 0) ; font-style: normal ; letter-spacing: normal ; text-align: center ; text-indent: 0px ; text-transform: none ; word-spacing: 0px ; font-family: &amp;#34;jetbrains mono&amp;#34; , monospace ; font-size: 18px&quot;&gt;&lt;span style=&quot;background-color: rgb(255 , 153 , 51)&quot;&gt;&lt;font style=&quot;font-size: 18px&quot;&gt;obtainFreshBeanFactory()&lt;/font&gt;&lt;/span&gt;&lt;/pre&gt;&lt;span style=&quot;background-color: rgb(255 , 153 , 51) ; font-size: 18px&quot;&gt;&lt;br&gt;&lt;/span&gt;" style="text;html=1;strokeColor=none;fillColor=none;align=center;verticalAlign=middle;whiteSpace=wrap;rounded=0;fontStyle=1" parent="1" vertex="1">
                    <mxGeometry x="685" y="-440" width="200" height="30" as="geometry"/>
                </mxCell>
                <mxCell id="YtkZAcO4TXOXhd_2KU37-37" style="edgeStyle=orthogonalEdgeStyle;rounded=0;orthogonalLoop=1;jettySize=auto;html=1;exitX=0.5;exitY=1;exitDx=0;exitDy=0;entryX=0.5;entryY=0;entryDx=0;entryDy=0;" parent="1" source="YtkZAcO4TXOXhd_2KU37-38" target="YtkZAcO4TXOXhd_2KU37-68" edge="1">
                    <mxGeometry relative="1" as="geometry"/>
                </mxCell>
                <mxCell id="YtkZAcO4TXOXhd_2KU37-38" value="从xml,注解,包扫码获取需要加载的bean，&lt;br&gt;并转换成&lt;span style=&quot;background-color: rgb(255 , 255 , 255) ; font-family: &amp;#34;consolas&amp;#34; , monospace ; font-size: 9pt ; text-align: left&quot;&gt;GenericBeanDefinition对象&lt;/span&gt;" style="rounded=0;whiteSpace=wrap;html=1;" parent="1" vertex="1">
                    <mxGeometry x="-1360" y="170" width="340" height="70" as="geometry"/>
                </mxCell>
                <mxCell id="YtkZAcO4TXOXhd_2KU37-39" style="edgeStyle=orthogonalEdgeStyle;rounded=0;orthogonalLoop=1;jettySize=auto;html=1;exitX=1;exitY=0.5;exitDx=0;exitDy=0;entryX=0;entryY=0.5;entryDx=0;entryDy=0;" parent="1" source="YtkZAcO4TXOXhd_2KU37-40" target="YtkZAcO4TXOXhd_2KU37-8" edge="1">
                    <mxGeometry relative="1" as="geometry"/>
                </mxCell>
                <mxCell id="YtkZAcO4TXOXhd_2KU37-40" value="&lt;font style=&quot;font-size: 14px&quot;&gt;扩展方法，没有实现&lt;/font&gt;" style="text;html=1;strokeColor=#314354;fillColor=#647687;align=left;verticalAlign=middle;whiteSpace=wrap;rounded=0;fontColor=#ffffff;" parent="1" vertex="1">
                    <mxGeometry x="-660" y="275" width="557" height="50" as="geometry"/>
                </mxCell>
                <mxCell id="YtkZAcO4TXOXhd_2KU37-41" value="&lt;font style=&quot;font-size: 18px&quot;&gt;&lt;b&gt;模板模式设计模式（整个容器的初始化）&lt;br&gt;监听器设计模式（给容器增加监听器）&lt;br&gt;单例模式（注入bean的时候）&lt;br&gt;&lt;/b&gt;&lt;/font&gt;" style="text;html=1;strokeColor=#314354;fillColor=#647687;align=center;verticalAlign=middle;whiteSpace=wrap;rounded=0;fontColor=#ffffff;" parent="1" vertex="1">
                    <mxGeometry x="-463" y="-140" width="360" height="90" as="geometry"/>
                </mxCell>
                <mxCell id="YtkZAcO4TXOXhd_2KU37-42" value="" style="endArrow=none;dashed=1;html=1;dashPattern=1 3;strokeWidth=2;exitX=0.75;exitY=1;exitDx=0;exitDy=0;entryX=0;entryY=0;entryDx=0;entryDy=0;" parent="1" source="YtkZAcO4TXOXhd_2KU37-41" target="YtkZAcO4TXOXhd_2KU37-3" edge="1">
                    <mxGeometry width="50" height="50" relative="1" as="geometry">
                        <mxPoint x="100" y="-80" as="sourcePoint"/>
                        <mxPoint x="150" y="-130" as="targetPoint"/>
                    </mxGeometry>
                </mxCell>
                <mxCell id="YtkZAcO4TXOXhd_2KU37-43" value="" style="rounded=0;whiteSpace=wrap;html=1;" parent="1" vertex="1">
                    <mxGeometry x="460" width="650" height="550" as="geometry"/>
                </mxCell>
                <mxCell id="YtkZAcO4TXOXhd_2KU37-44" value="从容器中获取&lt;span style=&quot;font-family: &amp;#34;jetbrains mono&amp;#34; , monospace ; font-size: 9.8pt&quot;&gt;BeanFactoryPostProcessor或&lt;/span&gt;&lt;span style=&quot;font-family: &amp;#34;jetbrains mono&amp;#34; , monospace ; font-size: 9.8pt&quot;&gt;BeanDefinitionRegistryPostProcessor&lt;/span&gt;" style="rounded=0;whiteSpace=wrap;html=1;fillColor=#ffe6cc;strokeColor=#d79b00;" parent="1" vertex="1">
                    <mxGeometry x="650" y="50" width="270" height="60" as="geometry"/>
                </mxCell>
                <mxCell id="YtkZAcO4TXOXhd_2KU37-45" value="&lt;p style=&quot;line-height: 70%&quot;&gt;&lt;/p&gt;&lt;pre style=&quot;font-family: &amp;#34;jetbrains mono&amp;#34; , monospace ; font-size: 9.8pt&quot;&gt;调用方法&lt;/pre&gt;&lt;pre style=&quot;font-family: &amp;#34;jetbrains mono&amp;#34; , monospace ; font-size: 9.8pt&quot;&gt;beanFactory.getBeanNamesForType(BeanDefinitionRegistryPostProcessor.class, true, false);&lt;/pre&gt;&lt;p&gt;&lt;/p&gt;" style="whiteSpace=wrap;html=1;rounded=0;fillColor=#ffe6cc;strokeColor=#d79b00;" parent="1" vertex="1">
                    <mxGeometry x="610" y="150" width="350" height="60" as="geometry"/>
                </mxCell>
                <mxCell id="YtkZAcO4TXOXhd_2KU37-46" style="edgeStyle=none;rounded=0;orthogonalLoop=1;jettySize=auto;html=1;exitX=0.5;exitY=1;exitDx=0;exitDy=0;entryX=0.5;entryY=0;entryDx=0;entryDy=0;" parent="1" source="YtkZAcO4TXOXhd_2KU37-47" target="YtkZAcO4TXOXhd_2KU37-54" edge="1">
                    <mxGeometry relative="1" as="geometry"/>
                </mxCell>
                <mxCell id="YtkZAcO4TXOXhd_2KU37-47" value="&lt;p style=&quot;line-height: 70%&quot;&gt;&lt;/p&gt;&lt;pre style=&quot;font-family: &amp;#34;jetbrains mono&amp;#34; , monospace ; font-size: 9.8pt&quot;&gt;&lt;span style=&quot;text-align: left ; font-size: 9.8pt&quot;&gt;通过接口PriorityOrdered、&lt;/span&gt;&lt;span style=&quot;text-align: left ; font-size: 9.8pt&quot;&gt;Ordered排序顺序执行&lt;/span&gt;&lt;br&gt;&lt;/pre&gt;&lt;p&gt;&lt;/p&gt;" style="whiteSpace=wrap;html=1;rounded=0;fillColor=#ffe6cc;strokeColor=#d79b00;" parent="1" vertex="1">
                    <mxGeometry x="610" y="250" width="350" height="60" as="geometry"/>
                </mxCell>
                <mxCell id="YtkZAcO4TXOXhd_2KU37-48" style="edgeStyle=none;rounded=0;orthogonalLoop=1;jettySize=auto;html=1;exitX=0.5;exitY=1;exitDx=0;exitDy=0;entryX=0.5;entryY=0;entryDx=0;entryDy=0;" parent="1" source="YtkZAcO4TXOXhd_2KU37-44" target="YtkZAcO4TXOXhd_2KU37-45" edge="1">
                    <mxGeometry relative="1" as="geometry"/>
                </mxCell>
                <mxCell id="YtkZAcO4TXOXhd_2KU37-49" style="edgeStyle=none;rounded=0;orthogonalLoop=1;jettySize=auto;html=1;exitX=0.5;exitY=1;exitDx=0;exitDy=0;entryX=0.5;entryY=0;entryDx=0;entryDy=0;" parent="1" source="YtkZAcO4TXOXhd_2KU37-45" target="YtkZAcO4TXOXhd_2KU37-47" edge="1">
                    <mxGeometry relative="1" as="geometry"/>
                </mxCell>
                <mxCell id="YtkZAcO4TXOXhd_2KU37-50" value="&lt;span style=&quot;background-color: rgb(255 , 255 , 255)&quot;&gt;&lt;font face=&quot;jetbrains mono, monospace&quot; style=&quot;font-size: 14px&quot;&gt;&lt;div&gt;1.获取BeanFactoryPostProcessor或BeanDefinitionRegistryPostProcessor接口的实现类，并调用实现了接口的方法&lt;/div&gt;&lt;div&gt;2.分层获取并调用，已经通过接口&lt;span style=&quot;color: rgb(152 , 195 , 121) ; font-style: italic ; background-color: rgb(40 , 44 , 52) ; font-family: &amp;#34;jetbrains mono&amp;#34; , monospace ; font-size: 9.8pt&quot;&gt;PriorityOrdered、&lt;/span&gt;&lt;span style=&quot;color: rgb(152 , 195 , 121) ; font-style: italic ; background-color: rgb(40 , 44 , 52) ; font-family: &amp;#34;jetbrains mono&amp;#34; , monospace ; font-size: 9.8pt&quot;&gt;Ordered排序顺序执行&lt;/span&gt;&lt;/div&gt;&lt;div&gt;&lt;div style=&quot;background-color: rgb(248 , 249 , 250)&quot;&gt;&lt;span style=&quot;font-size: 9.8pt&quot;&gt;3.将GenericBeanDefinition转换成RootBeanDefinition，并且保存到&lt;/span&gt;&lt;/div&gt;&lt;font face=&quot;jetbrains mono, monospace&quot; style=&quot;font-size: 12px ; background-color: rgb(248 , 249 , 250)&quot;&gt;&lt;span style=&quot;font-size: 13.0667px&quot;&gt;mergedBeanDefinitions集合中去对应的方法为：&lt;/span&gt;&lt;/font&gt;&lt;span style=&quot;background-color: rgb(40 , 44 , 52) ; color: rgb(171 , 178 , 191) ; font-size: 9.8pt&quot;&gt;beanFactory&lt;/span&gt;&lt;span style=&quot;background-color: rgb(248 , 249 , 250) ; font-size: 9.8pt ; color: rgb(166 , 178 , 192)&quot;&gt;.&lt;/span&gt;&lt;span style=&quot;background-color: rgb(248 , 249 , 250) ; font-size: 9.8pt ; color: rgb(97 , 174 , 239)&quot;&gt;getBeanNamesForType&lt;/span&gt;&lt;span style=&quot;background-color: rgb(248 , 249 , 250) ; font-size: 9.8pt ; color: rgb(166 , 178 , 192)&quot;&gt;(&lt;/span&gt;&lt;span style=&quot;background-color: rgb(248 , 249 , 250) ; font-size: 9.8pt ; color: rgb(152 , 195 , 121) ; font-style: italic&quot;&gt;BeanDefinitionRegistryPostProcessor&lt;/span&gt;&lt;span style=&quot;background-color: rgb(248 , 249 , 250) ; font-size: 9.8pt ; color: rgb(166 , 178 , 192)&quot;&gt;.&lt;/span&gt;&lt;span style=&quot;background-color: rgb(248 , 249 , 250) ; font-size: 9.8pt ; color: rgb(198 , 121 , 221) ; font-style: italic&quot;&gt;class&lt;/span&gt;&lt;span style=&quot;background-color: rgb(248 , 249 , 250) ; font-size: 9.8pt ; color: rgb(166 , 178 , 192)&quot;&gt;,&amp;nbsp;&lt;/span&gt;&lt;span style=&quot;background-color: rgb(248 , 249 , 250) ; font-size: 9.8pt ; color: rgb(198 , 121 , 221) ; font-style: italic&quot;&gt;true&lt;/span&gt;&lt;span style=&quot;background-color: rgb(248 , 249 , 250) ; font-size: 9.8pt ; color: rgb(166 , 178 , 192)&quot;&gt;,&amp;nbsp;&lt;/span&gt;&lt;span style=&quot;background-color: rgb(248 , 249 , 250) ; font-size: 9.8pt ; color: rgb(198 , 121 , 221) ; font-style: italic&quot;&gt;false&lt;/span&gt;&lt;span style=&quot;background-color: rgb(248 , 249 , 250) ; font-size: 9.8pt ; color: rgb(166 , 178 , 192)&quot;&gt;)&lt;/span&gt;&lt;br&gt;&lt;/div&gt;&lt;/font&gt;&lt;/span&gt;" style="text;html=1;strokeColor=none;fillColor=none;align=left;verticalAlign=middle;whiteSpace=wrap;rounded=0;" parent="1" vertex="1">
                    <mxGeometry x="1150" y="-70" width="710" height="200" as="geometry"/>
                </mxCell>
                <mxCell id="YtkZAcO4TXOXhd_2KU37-51" value="" style="endArrow=none;dashed=1;html=1;dashPattern=1 3;strokeWidth=2;entryX=0;entryY=0.363;entryDx=0;entryDy=0;entryPerimeter=0;exitX=1.009;exitY=0.016;exitDx=0;exitDy=0;exitPerimeter=0;" parent="1" source="YtkZAcO4TXOXhd_2KU37-43" target="YtkZAcO4TXOXhd_2KU37-50" edge="1">
                    <mxGeometry width="50" height="50" relative="1" as="geometry">
                        <mxPoint x="1210" y="180" as="sourcePoint"/>
                        <mxPoint x="1260" y="130" as="targetPoint"/>
                    </mxGeometry>
                </mxCell>
                <mxCell id="YtkZAcO4TXOXhd_2KU37-52" value="&lt;span style=&quot;background-color: rgb(181 , 115 , 157)&quot;&gt;&lt;br&gt;&lt;br&gt;&lt;/span&gt;&lt;pre style=&quot;color: rgb(0 , 0 , 0) ; font-style: normal ; font-weight: 400 ; letter-spacing: normal ; text-align: center ; text-indent: 0px ; text-transform: none ; word-spacing: 0px ; font-family: &amp;#34;jetbrains mono&amp;#34; , monospace ; font-size: 9.8pt&quot;&gt;&lt;span style=&quot;background-color: rgb(181 , 115 , 157)&quot;&gt;PostProcessorRegistrationDelegate.invokeBeanFactoryPostProcessors&lt;/span&gt;&lt;/pre&gt;&lt;span style=&quot;background-color: rgb(181 , 115 , 157)&quot;&gt;&lt;br&gt;&lt;/span&gt;" style="text;html=1;strokeColor=none;fillColor=none;align=center;verticalAlign=middle;whiteSpace=wrap;rounded=0;" parent="1" vertex="1">
                    <mxGeometry x="555" y="10" width="460" height="20" as="geometry"/>
                </mxCell>
                <mxCell id="YtkZAcO4TXOXhd_2KU37-53" style="edgeStyle=none;rounded=0;orthogonalLoop=1;jettySize=auto;html=1;exitX=0.5;exitY=1;exitDx=0;exitDy=0;" parent="1" source="YtkZAcO4TXOXhd_2KU37-54" target="YtkZAcO4TXOXhd_2KU37-55" edge="1">
                    <mxGeometry relative="1" as="geometry"/>
                </mxCell>
                <mxCell id="YtkZAcO4TXOXhd_2KU37-54" value="&lt;p style=&quot;line-height: 70%&quot;&gt;&lt;/p&gt;&lt;pre style=&quot;font-family: &amp;#34;jetbrains mono&amp;#34; , monospace ; font-size: 9.8pt&quot;&gt;调用方法&lt;/pre&gt;&lt;pre style=&quot;font-family: &amp;#34;jetbrains mono&amp;#34; , monospace ; font-size: 9.8pt&quot;&gt;beanFactory.getBeanNamesForType(BeanFactoryPostProcessor.class, true, false);&lt;/pre&gt;&lt;p&gt;&lt;/p&gt;" style="whiteSpace=wrap;html=1;rounded=0;fillColor=#ffe6cc;strokeColor=#d79b00;" parent="1" vertex="1">
                    <mxGeometry x="610" y="360" width="350" height="60" as="geometry"/>
                </mxCell>
                <mxCell id="YtkZAcO4TXOXhd_2KU37-55" value="&lt;p style=&quot;line-height: 70%&quot;&gt;&lt;/p&gt;&lt;pre style=&quot;font-family: &amp;#34;jetbrains mono&amp;#34; , monospace ; font-size: 9.8pt&quot;&gt;&lt;span style=&quot;text-align: left ; font-size: 9.8pt&quot;&gt;通过接口PriorityOrdered、&lt;/span&gt;&lt;span style=&quot;text-align: left ; font-size: 9.8pt&quot;&gt;Ordered排序顺序执行&lt;/span&gt;&lt;br&gt;&lt;/pre&gt;&lt;p&gt;&lt;/p&gt;" style="whiteSpace=wrap;html=1;rounded=0;fillColor=#ffe6cc;strokeColor=#d79b00;" parent="1" vertex="1">
                    <mxGeometry x="610" y="460" width="350" height="60" as="geometry"/>
                </mxCell>
                <mxCell id="YtkZAcO4TXOXhd_2KU37-56" style="edgeStyle=none;rounded=0;orthogonalLoop=1;jettySize=auto;html=1;exitX=1;exitY=0.5;exitDx=0;exitDy=0;" parent="1" source="YtkZAcO4TXOXhd_2KU37-57" target="YtkZAcO4TXOXhd_2KU37-6" edge="1">
                    <mxGeometry relative="1" as="geometry"/>
                </mxCell>
                <mxCell id="YtkZAcO4TXOXhd_2KU37-57" value="&lt;div style=&quot;font-family: &amp;#34;jetbrains mono&amp;#34; , monospace ; font-size: 14px ; letter-spacing: normal ; text-align: left ; text-indent: 0px ; text-transform: none ; word-spacing: 0px&quot;&gt;1.获取&lt;font color=&quot;#cc6600&quot;&gt;&lt;b&gt;BeanFactoryPostProcessor&lt;/b&gt;&lt;/font&gt;&lt;/div&gt;&lt;div style=&quot;font-family: &amp;#34;jetbrains mono&amp;#34; , monospace ; font-size: 14px ; letter-spacing: normal ; text-align: left ; text-indent: 0px ; text-transform: none ; word-spacing: 0px&quot;&gt;&lt;font color=&quot;#cc6600&quot;&gt;&lt;b&gt;或BeanDefinitionRegistryPostProcessor&lt;/b&gt;&lt;/font&gt;接口的实现类，并调用实现了接口的方法&lt;/div&gt;&lt;div style=&quot;font-family: &amp;#34;jetbrains mono&amp;#34; , monospace ; font-size: 14px ; letter-spacing: normal ; text-align: left ; text-indent: 0px ; text-transform: none ; word-spacing: 0px&quot;&gt;2.分层获取并调用，已经通过接口&lt;span style=&quot;font-family: &amp;#34;jetbrains mono&amp;#34; , monospace ; font-size: 9.8pt&quot;&gt;&lt;font color=&quot;#ff8000&quot;&gt;&lt;b&gt;PriorityOrdered、&lt;/b&gt;&lt;/font&gt;&lt;/span&gt;&lt;span style=&quot;font-family: &amp;#34;jetbrains mono&amp;#34; , monospace ; font-size: 9.8pt&quot;&gt;&lt;font color=&quot;#ff8000&quot;&gt;&lt;b&gt;Ordered&lt;/b&gt;&lt;/font&gt;排序顺序执行&lt;/span&gt;&lt;/div&gt;&lt;div style=&quot;font-family: &amp;#34;jetbrains mono&amp;#34; , monospace ; font-size: 14px ; letter-spacing: normal ; text-align: left ; text-indent: 0px ; text-transform: none ; word-spacing: 0px&quot;&gt;&lt;span style=&quot;font-family: &amp;#34;jetbrains mono&amp;#34; , monospace ; font-size: 9.8pt&quot;&gt;3.将GenericBeanDefinition转换成RootBeanDefinition，并且保存到&lt;/span&gt;&lt;/div&gt;&lt;font face=&quot;jetbrains mono, monospace&quot;&gt;&lt;span style=&quot;font-size: 13.0667px&quot;&gt;mergedBeanDefinitions集合中去对应的方法为：&lt;/span&gt;&lt;/font&gt;&lt;span style=&quot;background-color: rgb(40 , 44 , 52) ; color: rgb(171 , 178 , 191) ; font-family: &amp;#34;jetbrains mono&amp;#34; , monospace ; font-size: 9.8pt&quot;&gt;beanFactory&lt;/span&gt;&lt;span style=&quot;font-family: &amp;#34;jetbrains mono&amp;#34; , monospace ; font-size: 9.8pt ; color: rgb(166 , 178 , 192)&quot;&gt;.&lt;/span&gt;&lt;span style=&quot;font-family: &amp;#34;jetbrains mono&amp;#34; , monospace ; font-size: 9.8pt ; color: rgb(97 , 174 , 239)&quot;&gt;getBeanNamesForType&lt;/span&gt;&lt;span style=&quot;font-family: &amp;#34;jetbrains mono&amp;#34; , monospace ; font-size: 9.8pt ; color: rgb(166 , 178 , 192)&quot;&gt;(&lt;/span&gt;&lt;span style=&quot;font-family: &amp;#34;jetbrains mono&amp;#34; , monospace ; font-size: 9.8pt ; color: rgb(152 , 195 , 121) ; font-style: italic&quot;&gt;BeanDefinitionRegistryPostProcessor&lt;/span&gt;&lt;span style=&quot;font-family: &amp;#34;jetbrains mono&amp;#34; , monospace ; font-size: 9.8pt ; color: rgb(166 , 178 , 192)&quot;&gt;.&lt;/span&gt;&lt;span style=&quot;font-family: &amp;#34;jetbrains mono&amp;#34; , monospace ; font-size: 9.8pt ; color: rgb(198 , 121 , 221) ; font-style: italic&quot;&gt;class&lt;/span&gt;&lt;span style=&quot;font-family: &amp;#34;jetbrains mono&amp;#34; , monospace ; font-size: 9.8pt ; color: rgb(166 , 178 , 192)&quot;&gt;, &lt;/span&gt;&lt;span style=&quot;font-family: &amp;#34;jetbrains mono&amp;#34; , monospace ; font-size: 9.8pt ; color: rgb(198 , 121 , 221) ; font-style: italic&quot;&gt;true&lt;/span&gt;&lt;span style=&quot;font-family: &amp;#34;jetbrains mono&amp;#34; , monospace ; font-size: 9.8pt ; color: rgb(166 , 178 , 192)&quot;&gt;, &lt;/span&gt;&lt;span style=&quot;font-family: &amp;#34;jetbrains mono&amp;#34; , monospace ; font-size: 9.8pt ; color: rgb(198 , 121 , 221) ; font-style: italic&quot;&gt;false&lt;/span&gt;&lt;span style=&quot;font-family: &amp;#34;jetbrains mono&amp;#34; , monospace ; font-size: 9.8pt ; color: rgb(166 , 178 , 192)&quot;&gt;)&lt;/span&gt;" style="text;whiteSpace=wrap;html=1;fillColor=#647687;strokeColor=#314354;fontColor=#ffffff;" parent="1" vertex="1">
                    <mxGeometry x="-663" y="370" width="560" height="160" as="geometry"/>
                </mxCell>
                <mxCell id="YtkZAcO4TXOXhd_2KU37-58" style="edgeStyle=none;rounded=0;orthogonalLoop=1;jettySize=auto;html=1;exitX=1;exitY=0.5;exitDx=0;exitDy=0;" parent="1" source="YtkZAcO4TXOXhd_2KU37-59" target="YtkZAcO4TXOXhd_2KU37-10" edge="1">
                    <mxGeometry relative="1" as="geometry"/>
                </mxCell>
                <mxCell id="YtkZAcO4TXOXhd_2KU37-59" value="&lt;pre style=&quot;font-family: &amp;#34;jetbrains mono&amp;#34; , monospace ; letter-spacing: normal ; text-align: left ; text-indent: 0px ; text-transform: none ; word-spacing: 0px&quot;&gt;&lt;font style=&quot;font-size: 14px&quot;&gt;1.获取实现了&lt;span style=&quot;font-family: &amp;#34;jetbrains mono&amp;#34; , monospace&quot;&gt;&lt;font color=&quot;#cc6600&quot;&gt;BeanPostProcessor&lt;/font&gt;接口的类&lt;br&gt;&lt;/span&gt;&lt;span style=&quot;font-family: &amp;#34;jetbrains mono&amp;#34; , monospace&quot;&gt;2.将实现了&lt;font color=&quot;#cc6600&quot;&gt;BeanPostProcessor&lt;/font&gt;接口的类加入到spring容器中去&lt;/span&gt;&lt;/font&gt;&lt;/pre&gt;" style="text;whiteSpace=wrap;html=1;fillColor=#647687;strokeColor=#314354;fontColor=#ffffff;" parent="1" vertex="1">
                    <mxGeometry x="-660" y="555" width="557" height="70" as="geometry"/>
                </mxCell>
                <mxCell id="YtkZAcO4TXOXhd_2KU37-60" style="edgeStyle=orthogonalEdgeStyle;rounded=0;orthogonalLoop=1;jettySize=auto;html=1;exitX=1;exitY=0.5;exitDx=0;exitDy=0;entryX=0;entryY=0.5;entryDx=0;entryDy=0;" parent="1" source="YtkZAcO4TXOXhd_2KU37-61" target="YtkZAcO4TXOXhd_2KU37-16" edge="1">
                    <mxGeometry relative="1" as="geometry"/>
                </mxCell>
                <mxCell id="YtkZAcO4TXOXhd_2KU37-61" value="&lt;font style=&quot;font-size: 14px&quot;&gt;扩展方法，没有实现&lt;/font&gt;" style="text;html=1;strokeColor=#314354;fillColor=#647687;align=left;verticalAlign=middle;whiteSpace=wrap;rounded=0;fontColor=#ffffff;" parent="1" vertex="1">
                    <mxGeometry x="-660" y="785" width="557" height="50" as="geometry"/>
                </mxCell>
                <mxCell id="YtkZAcO4TXOXhd_2KU37-62" style="edgeStyle=orthogonalEdgeStyle;rounded=0;orthogonalLoop=1;jettySize=auto;html=1;exitX=1;exitY=0.5;exitDx=0;exitDy=0;entryX=0;entryY=0.5;entryDx=0;entryDy=0;" parent="1" source="YtkZAcO4TXOXhd_2KU37-63" target="YtkZAcO4TXOXhd_2KU37-18" edge="1">
                    <mxGeometry relative="1" as="geometry"/>
                </mxCell>
                <mxCell id="YtkZAcO4TXOXhd_2KU37-63" value="&lt;span style=&quot;font-size: 14px&quot;&gt;1.向容器注册&lt;/span&gt;&lt;span style=&quot;font-size: 9.8pt&quot;&gt;Listener,相应接口有：&lt;/span&gt;&lt;span style=&quot;font-size: 13.0667px&quot;&gt;ApplicationListener&lt;/span&gt;&lt;br&gt;&lt;span style=&quot;font-size: 13.0667px&quot;&gt;2.将获取到的监听类，加入到ApplicationEventMulticaster类中&lt;/span&gt;" style="text;html=1;strokeColor=#314354;fillColor=#647687;align=left;verticalAlign=middle;whiteSpace=wrap;rounded=0;fontColor=#ffffff;" parent="1" vertex="1">
                    <mxGeometry x="-660" y="855" width="557" height="50" as="geometry"/>
                </mxCell>
                <mxCell id="YtkZAcO4TXOXhd_2KU37-64" style="edgeStyle=orthogonalEdgeStyle;rounded=0;orthogonalLoop=1;jettySize=auto;html=1;exitX=1;exitY=0.5;exitDx=0;exitDy=0;entryX=0;entryY=0.5;entryDx=0;entryDy=0;" parent="1" source="YtkZAcO4TXOXhd_2KU37-65" target="YtkZAcO4TXOXhd_2KU37-14" edge="1">
                    <mxGeometry relative="1" as="geometry"/>
                </mxCell>
                <mxCell id="YtkZAcO4TXOXhd_2KU37-65" value="&lt;span style=&quot;font-size: 14px&quot;&gt;向容器中初始化&lt;/span&gt;&lt;span style=&quot;font-size: 13.0667px&quot;&gt;ApplicationEventMulticaster。用于容器的监听器处理&lt;/span&gt;" style="text;html=1;strokeColor=#314354;fillColor=#647687;align=left;verticalAlign=middle;whiteSpace=wrap;rounded=0;fontColor=#ffffff;" parent="1" vertex="1">
                    <mxGeometry x="-660" y="720" width="557" height="50" as="geometry"/>
                </mxCell>
                <mxCell id="YtkZAcO4TXOXhd_2KU37-66" style="edgeStyle=orthogonalEdgeStyle;rounded=0;orthogonalLoop=1;jettySize=auto;html=1;exitX=1;exitY=0.5;exitDx=0;exitDy=0;" parent="1" source="YtkZAcO4TXOXhd_2KU37-67" target="YtkZAcO4TXOXhd_2KU37-19" edge="1">
                    <mxGeometry relative="1" as="geometry"/>
                </mxCell>
                <mxCell id="YtkZAcO4TXOXhd_2KU37-67" value="&lt;span style=&quot;font-size: 14px&quot;&gt;重要的方法&lt;br&gt;1.初始化普通的Bean（循环依赖解决）&lt;br&gt;2.&lt;br&gt;&lt;/span&gt;" style="text;html=1;strokeColor=#314354;fillColor=#647687;align=left;verticalAlign=middle;whiteSpace=wrap;rounded=0;fontColor=#ffffff;" parent="1" vertex="1">
                    <mxGeometry x="-660" y="940" width="557" height="50" as="geometry"/>
                </mxCell>
                <mxCell id="YtkZAcO4TXOXhd_2KU37-68" value="&lt;span style=&quot;font-family: &amp;#34;consolas&amp;#34; , monospace ; text-align: left ; background-color: rgb(255 , 255 , 255)&quot;&gt;将GenericBeanDefinition&lt;br&gt;&lt;/span&gt;转换成&lt;br&gt;&lt;span style=&quot;background-color: rgb(255 , 255 , 255) ; font-family: &amp;#34;consolas&amp;#34; , monospace ; font-size: 9pt ; text-align: left&quot;&gt;RootBeanDefinition对象&lt;/span&gt;" style="rounded=0;whiteSpace=wrap;html=1;" parent="1" vertex="1">
                    <mxGeometry x="-1360" y="270" width="340" height="70" as="geometry"/>
                </mxCell>
                <mxCell id="YtkZAcO4TXOXhd_2KU37-69" value="&lt;font style=&quot;font-size: 14px ; line-height: 100% ; background-color: rgb(255 , 128 , 0)&quot;&gt;注入到spring容器的bean的生命周期&lt;/font&gt;" style="text;html=1;align=center;verticalAlign=middle;whiteSpace=wrap;rounded=0;" parent="1" vertex="1">
                    <mxGeometry x="-1312.5" y="100" width="245" height="40" as="geometry"/>
                </mxCell>
            </root>
        </mxGraphModel>
    </diagram>
    <diagram name="第 2 页" id="6QCqLWjbcgPLUwxSeG6x">
        <mxGraphModel dx="1086" dy="806" grid="1" gridSize="10" guides="1" tooltips="1" connect="1" arrows="1" fold="1" page="1" pageScale="1" pageWidth="827" pageHeight="1169" math="0" shadow="0">
            <root>
                <mxCell id="NxvaFK5PAcIybzItB0VF-0"/>
                <mxCell id="NxvaFK5PAcIybzItB0VF-1" parent="NxvaFK5PAcIybzItB0VF-0"/>
                <mxCell id="NxvaFK5PAcIybzItB0VF-9" value="" style="rounded=0;whiteSpace=wrap;html=1;" vertex="1" parent="NxvaFK5PAcIybzItB0VF-1">
                    <mxGeometry x="90" y="70" width="180" height="570" as="geometry"/>
                </mxCell>
                <mxCell id="NxvaFK5PAcIybzItB0VF-7" style="edgeStyle=orthogonalEdgeStyle;rounded=0;orthogonalLoop=1;jettySize=auto;html=1;exitX=0.5;exitY=1;exitDx=0;exitDy=0;" edge="1" parent="NxvaFK5PAcIybzItB0VF-1" source="NxvaFK5PAcIybzItB0VF-2" target="NxvaFK5PAcIybzItB0VF-3">
                    <mxGeometry relative="1" as="geometry"/>
                </mxCell>
                <mxCell id="NxvaFK5PAcIybzItB0VF-2" value="找到入口" style="rounded=0;whiteSpace=wrap;html=1;" vertex="1" parent="NxvaFK5PAcIybzItB0VF-1">
                    <mxGeometry x="120" y="250" width="120" height="60" as="geometry"/>
                </mxCell>
                <mxCell id="NxvaFK5PAcIybzItB0VF-8" style="edgeStyle=orthogonalEdgeStyle;rounded=0;orthogonalLoop=1;jettySize=auto;html=1;exitX=0.5;exitY=1;exitDx=0;exitDy=0;entryX=0.5;entryY=0;entryDx=0;entryDy=0;" edge="1" parent="NxvaFK5PAcIybzItB0VF-1" source="NxvaFK5PAcIybzItB0VF-3" target="NxvaFK5PAcIybzItB0VF-4">
                    <mxGeometry relative="1" as="geometry"/>
                </mxCell>
                <mxCell id="NxvaFK5PAcIybzItB0VF-3" value="Debug模式，找到主干方法" style="rounded=0;whiteSpace=wrap;html=1;" vertex="1" parent="NxvaFK5PAcIybzItB0VF-1">
                    <mxGeometry x="120" y="360" width="120" height="60" as="geometry"/>
                </mxCell>
                <mxCell id="NxvaFK5PAcIybzItB0VF-4" value="找到核心的方法" style="rounded=0;whiteSpace=wrap;html=1;" vertex="1" parent="NxvaFK5PAcIybzItB0VF-1">
                    <mxGeometry x="120" y="470" width="120" height="60" as="geometry"/>
                </mxCell>
                <mxCell id="NxvaFK5PAcIybzItB0VF-6" style="edgeStyle=orthogonalEdgeStyle;rounded=0;orthogonalLoop=1;jettySize=auto;html=1;exitX=0.5;exitY=1;exitDx=0;exitDy=0;" edge="1" parent="NxvaFK5PAcIybzItB0VF-1" source="NxvaFK5PAcIybzItB0VF-5" target="NxvaFK5PAcIybzItB0VF-2">
                    <mxGeometry relative="1" as="geometry"/>
                </mxCell>
                <mxCell id="NxvaFK5PAcIybzItB0VF-5" value="了解框架业务" style="rounded=0;whiteSpace=wrap;html=1;" vertex="1" parent="NxvaFK5PAcIybzItB0VF-1">
                    <mxGeometry x="120" y="140" width="120" height="60" as="geometry"/>
                </mxCell>
                <mxCell id="NxvaFK5PAcIybzItB0VF-10" value="&lt;font style=&quot;font-size: 14px&quot; color=&quot;#cc6600&quot;&gt;&lt;b&gt;查看源码步骤&lt;/b&gt;&lt;/font&gt;" style="text;html=1;strokeColor=none;fillColor=none;align=center;verticalAlign=middle;whiteSpace=wrap;rounded=0;" vertex="1" parent="NxvaFK5PAcIybzItB0VF-1">
                    <mxGeometry x="135" y="80" width="90" height="20" as="geometry"/>
                </mxCell>
                <mxCell id="NxvaFK5PAcIybzItB0VF-11" value="分析接口之间的关系" style="rounded=1;whiteSpace=wrap;html=1;" vertex="1" parent="NxvaFK5PAcIybzItB0VF-1">
                    <mxGeometry x="320" y="140" width="120" height="60" as="geometry"/>
                </mxCell>
            </root>
        </mxGraphModel>
    </diagram>
</mxfile>